<svg xmlns="http://www.w3.org/2000/svg" xmlns:xlink="http://www.w3.org/1999/xlink" id="Layer_1" version="1.1" viewBox="112.3 254.2 1815.5 272.8">
  <!-- Generator: Adobe Illustrator 29.3.1, SVG Export Plug-In . SVG Version: 2.1.0 Build 151)  -->
  <defs>
    <style>
      .st0 {
        fill: #fff;
      }

      .st1 {
        fill: #35b0a0;
      }
    </style>
  </defs>
  <g>
    <path class="st0" d="M749.8,471.1c-14.8,0-27.6-2.6-38.3-7.8s-19.6-12-26.6-20.5c-7-8.5-12.3-17.7-15.6-27.5-3.4-9.8-5-19.2-5-28.2v-4.9c0-9.9,1.8-19.8,5.3-29.6,3.5-9.9,8.8-18.9,16-27.1,7.1-8.2,16-14.7,26.7-19.7,10.7-4.9,23.3-7.4,37.6-7.4s26.9,2.5,37.5,7.4c10.6,4.9,19.6,11.5,26.8,19.7,7.2,8.2,12.5,17.2,16.1,27.1,3.5,9.9,5.3,19.8,5.3,29.6v4.9c0,9-1.7,18.4-5.2,28.2-3.4,9.8-8.6,19-15.6,27.5-7,8.5-15.8,15.4-26.6,20.5-10.8,5.2-23.5,7.8-38.2,7.8ZM749.8,446.1c9,0,17.1-1.6,24.3-4.9,7.2-3.3,13.3-7.8,18.4-13.5,5.1-5.7,9-12.2,11.6-19.5,2.6-7.3,3.9-15.1,3.9-23.4s-1.3-16.7-4-24.1c-2.7-7.4-6.6-13.9-11.6-19.5-5-5.6-11.1-10-18.3-13.1-7.2-3.2-15.3-4.7-24.3-4.7s-17.1,1.6-24.3,4.7c-7.2,3.1-13.3,7.5-18.4,13.1-5.1,5.6-8.9,12.1-11.6,19.5s-3.9,15.5-3.9,24.1,1.3,16,3.9,23.4c2.6,7.3,6.5,13.8,11.6,19.5,5.1,5.7,11.2,10.2,18.4,13.5,7.2,3.3,15.3,4.9,24.3,4.9Z"/>
    <path class="st0" d="M866.1,512v-166h20.9v52.3l-4-.2c.8-12.7,3.4-23.2,8.1-31.5,4.7-8.2,10.8-14.4,18.4-18.4,7.6-4,16-6.1,25.2-6.1s16.6,1.6,23.6,4.8c7,3.2,13.1,7.7,18.2,13.4,5.1,5.7,9,12.3,11.6,19.8,2.6,7.5,3.9,15.6,3.9,24.3v4.3c0,8.5-1.3,16.6-4,24.2-2.7,7.6-6.6,14.2-11.7,19.9-5.1,5.7-11.2,10.2-18.2,13.5-7,3.3-14.9,4.9-23.6,4.9s-17.1-1.9-24.7-5.6c-7.6-3.8-13.9-9.7-18.9-18-4.9-8.2-7.7-18.9-8.3-32.1l9.9,16.6v80h-26.3ZM928.8,448.4c7.3,0,13.8-1.8,19.3-5.3,5.5-3.5,9.8-8.5,12.9-14.8,3.1-6.4,4.6-13.7,4.6-21.9s-1.5-15.5-4.6-21.8c-3.1-6.3-7.3-11.2-12.8-14.7-5.5-3.5-11.9-5.3-19.4-5.3s-12.7,1.5-18.4,4.5c-5.7,3-10.2,7.3-13.7,12.9-3.4,5.6-5.2,12.4-5.2,20.3v9.7c0,7.6,1.8,14.2,5.3,19.7,3.5,5.5,8.1,9.6,13.8,12.5,5.7,2.8,11.8,4.3,18.2,4.3Z"/>
    <path class="st0" d="M1074.8,471.1c-10.5,0-19.6-1.8-27.4-5.4-7.8-3.6-14.2-8.4-19.1-14.3-4.9-5.9-8.7-12.6-11.1-20-2.5-7.4-3.7-15-3.7-22.8v-4.3c0-7.9,1.2-15.6,3.7-23,2.5-7.4,6.2-14.1,11.1-20,4.9-5.9,11.2-10.6,18.8-14.1,7.6-3.5,16.4-5.3,26.4-5.3s23.9,2.8,32.6,8.5c8.7,5.7,15.2,13.1,19.5,22.1,4.3,9.1,6.5,18.8,6.5,29.3v10.6h-107.4v-17.8h89.6l-7.2,9c0-8.1-1.3-15.1-3.8-21-2.5-5.9-6.3-10.5-11.2-13.7-4.9-3.2-11.1-4.8-18.6-4.8s-14.3,1.8-19.6,5.4c-5.2,3.6-9.1,8.5-11.7,14.8-2.5,6.3-3.8,13.7-3.8,22.2s1.3,15.3,3.8,21.7c2.6,6.4,6.5,11.4,11.9,15.1,5.4,3.7,12.3,5.5,20.7,5.5s15.3-1.8,20.7-5.5c5.4-3.7,8.7-8,9.9-12.9h24.5c-1.6,8.2-5,15.4-10,21.6-5,6.1-11.3,10.9-19,14.1-7.6,3.3-16.3,4.9-26.1,4.9Z"/>
    <path class="st0" d="M1160.4,467v-121.1h20.9v51.9h-2.5c0-12,1.6-22.1,4.8-30.3,3.2-8.2,8.1-14.5,14.7-18.8,6.6-4.3,14.8-6.4,24.5-6.4h1.1c15,0,26.1,4.7,33.5,14.2,7.3,9.4,11,23.2,11,41.3v69.2h-26.3v-72.8c0-8.4-2.4-15.2-7.2-20.3s-11.4-7.8-19.8-7.8-15.4,2.7-20.7,8c-5.2,5.3-7.9,12.4-7.9,21.2v71.7h-26.3Z"/>
    <path class="st0" d="M1323.9,407v-15.1h38.2c8.8,0,16-1.7,21.6-5,5.5-3.4,9.7-7.9,12.4-13.5,2.7-5.6,4.1-11.9,4.1-18.8s-1.4-13.3-4.1-19c-2.7-5.6-6.8-10.1-12.4-13.4s-12.7-4.9-21.6-4.9h-38.2v-15.1h35.3c13.2,0,24.1,2.2,32.7,6.5,8.6,4.3,15,10.3,19.3,18,4.3,7.6,6.4,16.4,6.4,26.3v3.1c0,9.7-2.1,18.5-6.4,26.2-4.3,7.7-10.7,13.7-19.3,18.1-8.6,4.3-19.5,6.5-32.7,6.5h-35.3ZM1311.3,467v-164.7h17.1v164.7h-17.1Z"/>
    <path class="st0" d="M1449.5,467v-118.8h13.5v49.6h-1.4c0-17.4,3.8-30.2,11.5-38.5,7.6-8.3,19.6-12.5,35.9-12.5h3.8v15.3h-7c-12.9,0-22.7,3.3-29.4,10-6.7,6.7-10.1,16.4-10.1,29.3v65.6h-16.9Z"/>
    <path class="st0" d="M1546.3,467v-118.8h16.6v118.8h-16.6ZM1527.2,361.7v-13.5h35.7v13.5h-35.7ZM1549.9,326.2c-4,0-7.1-1.1-9.1-3.3-2-2.2-3-4.9-3-8.2s1-6,3-8.2c2-2.2,5.1-3.3,9.1-3.3s7.1,1.1,9,3.3c1.9,2.2,2.9,4.9,2.9,8.2s-1,6-2.9,8.2c-1.9,2.2-4.9,3.3-9,3.3Z"/>
    <path class="st0" d="M1607.2,467v-119.1h13.5v50.1h-2.7c0-10.9,1.5-20.4,4.6-28.3,3.1-7.9,7.7-14.1,13.8-18.5,6.1-4.4,13.9-6.6,23.4-6.6h.7c9.4,0,17.2,2.2,23.4,6.5,6.1,4.3,10.7,10.5,13.7,18.4,3,7.9,4.5,17.4,4.5,28.5h-5.4c0-10.9,1.5-20.4,4.6-28.3,3.1-7.9,7.7-14.1,13.9-18.5,6.2-4.4,14-6.6,23.5-6.6h.7c9.4,0,17.3,2.2,23.5,6.5,6.2,4.3,10.9,10.5,13.9,18.4,3.1,7.9,4.6,17.4,4.6,28.5v69h-16.9v-72.8c0-10.5-2.6-18.8-7.6-24.9-5.1-6.1-12.4-9.2-22-9.2s-17.7,3.2-23.5,9.6c-5.8,6.4-8.6,14.9-8.6,25.7v71.7h-16.9v-72.8c0-10.5-2.6-18.8-7.6-24.9-5.1-6.1-12.4-9.2-22-9.2s-17.7,3.2-23.5,9.6c-5.8,6.4-8.6,14.9-8.6,25.7v71.7h-16.9Z"/>
    <path class="st0" d="M1872.9,470.8c-10.2,0-19-1.8-26.5-5.3-7.5-3.5-13.6-8.2-18.4-14.1s-8.3-12.5-10.7-19.9c-2.3-7.3-3.5-14.9-3.5-22.7v-3.1c0-7.6,1.2-15.1,3.5-22.5,2.3-7.3,5.9-13.9,10.7-19.8,4.8-5.8,10.8-10.5,18.1-14,7.3-3.5,15.8-5.3,25.5-5.3s22.8,2.8,31.1,8.3c8.3,5.5,14.6,12.6,18.8,21.2,4.2,8.6,6.3,17.9,6.3,27.7v8.8h-106.3v-13h94.6l-4.3,6.5c0-8.8-1.5-16.6-4.6-23.3-3.1-6.7-7.6-11.9-13.5-15.7-5.9-3.8-13.3-5.7-22.1-5.7s-17,2.2-23.1,6.5c-6.1,4.3-10.8,10.1-13.8,17.3-3.1,7.2-4.6,15.3-4.6,24.5s1.5,17.2,4.6,24.6c3.1,7.4,7.8,13.3,14.2,17.6,6.4,4.3,14.4,6.5,24.1,6.5s18.7-2.4,25.1-7.1c6.4-4.7,10.4-10.3,11.9-16.7h15.7c-1.5,7.9-4.6,14.8-9.4,20.5-4.8,5.8-10.9,10.2-18.2,13.4-7.3,3.1-15.7,4.7-25.1,4.7Z"/>
  </g>
  <path class="st1" d="M246.1,385.5l1.6,2.7,27.7,47.9h46.6l-23.4-40.5-29.3-50.6h-104.6l-52.4,91,52.4,91h104.9l-23.4-40.5h-58.3l-29-50.6,29-50.6h58.3Z"/>
  <path class="st1" d="M520,395.6l-29.3-50.6h-104.6l23.2,40.2h58.3l29,50.6-29,50.6h-58l-29-50.6-23.2,40.5,29.3,50.6h104.9l29-50.6,23.2-40.5-23.4-39.9-.3-.3ZM356.8,395.6l-21.3,37,21.3-37Z"/>
  <path class="st1" d="M432.7,345.3l-23.2-40.5-29.3-50.6h-104.6l-52.4,91,23.2,40.5,1.6,2.7,27.7,47.9h58l2.1-3.5,21.3-37h-58.3l-29-50.6,29-50.6h58.3l29,50.6,23.2,40.2h.3l23.2-40.5v.3Z"/>
</svg>
