<svg xmlns="http://www.w3.org/2000/svg" id="Layer_1" version="1.1" viewBox="1.7 1.4 162.1 102.6">
  <!-- Generator: Adobe Illustrator 29.3.1, SVG Export Plug-In . SVG Version: 2.1.0 Build 151)  -->
  <defs>
    <style>
      .st0 {
        fill: #35b0a0;
      }
    </style>
  </defs>
  <path class="st0" d="M52,50.8l.6,1,10.4,18h17.5l-8.8-15.2-11-19H21.4L1.7,69.8l19.7,34.2h39.4l-8.8-15.2h-21.9l-10.9-19,10.9-19h21.9Z"/>
  <path class="st0" d="M154.9,54.6l-11-19h-39.3l8.7,15.1h21.9l10.9,19-10.9,19h-21.8l-10.9-19h0l-8.7,15.2,11,19h39.4l10.9-19h0c0,0,8.7-15.2,8.7-15.2l-8.8-15ZM93.6,54.6l-8,13.9,8-13.9Z"/>
  <path class="st0" d="M122,35.6l-8.7-15.2L102.3,1.4h-39.3l-19.7,34.2h0l8.7,15.2.6,1,10.4,18h21.8l.8-1.3,8-13.9h-21.9l-10.9-19,10.9-19h21.9l10.9,19h0l8.7,15.1h.1l8.7-15.2h0ZM102.3,69.7h0Z"/>
</svg>
